<svg width="393" height="58" viewBox="0 0 393 58" fill="none" xmlns="http://www.w3.org/2000/svg">
<path d="M330.272 1L358.073 1.28788L359 2.15152L358.382 2.72727H339.848L339.539 37.5606H358.691L359 38.7121L358.382 39H332.435L300.618 38.7121L300 36.9848V2.43939L300.309 1.28788H307.414L308.958 1.57576V24.0303L308.649 37.2727L321.314 37.5606L328.11 37.8485L330.581 38.1364L330.272 36.9848V1Z" fill="#AC944B"/>
<path d="M295.747 0H297L296.687 1.18182L291.673 10.0455L289.166 14.7727L286.032 21.2727L285.406 23.3409L285.092 26.8864V38.1136L284.465 38.7045L283.212 39H280.078L276.631 38.7045L276.318 38.1136V26.8864L275.378 22.75L271.931 15.9545L268.171 9.45455L264.41 3.54545L263.157 2.36364L262.53 2.06818H250.935L250.622 5.61364L250.309 38.7045L249.995 39H242.161L241.535 38.7045L241.221 37.8182L240.908 32.2045L240.594 2.06818L229.627 1.77273L229 1.47727V0.886364L229.94 0.590909H272.244L274.124 2.65909L278.198 9.45455L282.899 18.0227L284.465 19.5L286.032 17.1364L292.3 5.31818L295.433 0.295455L295.747 0Z" fill="#D6BC71"/>
<path d="M123.771 0L124.085 0.888889L121.574 3.85185L115.926 9.77778L113.101 13.037L112.16 14.8148L113.101 16.8889L115.298 18.963L118.75 23.1111L123.144 29.037L126.91 34.0741L129.734 37.037L130.989 37.3333L131.617 35.8519L134.128 31.1111L136.011 26.3704L138.835 18.963L141.346 13.3333L143.856 8L145.739 1.48148L146.681 0.888889L147.936 2.37037L153.585 15.4074L157.665 25.4815L161.117 33.7778L163 38.5185V39.4074L161.431 39.7037H156.41L153.899 39.1111L151.702 34.963L149.819 30.5185L149.191 29.9259L137.894 29.6296H136.638L136.011 31.4074L132.245 37.6296L130.676 40L122.202 39.7037L119.691 37.9259L116.553 34.6667L113.729 31.4074L109.335 26.3704L106.197 22.5185L104 20.4444V18.963L107.138 16.2963H107.766L108.394 15.1111L109.963 13.037L112.16 11.2593L114.356 8.88889L118.436 4.74074L120.005 2.96296L122.516 0.888889L123.771 0ZM142.601 13.9259L140.09 18.963L137.894 25.7778L137.266 28.7407L139.149 28.4444H147.309L148.878 28.7407L147.936 25.1852L146.053 20.4444L142.915 13.9259H142.601Z" fill="#AC934B"/>
<path d="M371.312 0H379.125L383.188 1.19403L386 3.28358L387.875 5.37313L390.062 10.1493L390.375 11.6418L389.125 11.0448L385.375 5.07463L382.562 2.68657L379.125 1.49254L374.75 1.19403L372.25 1.79104L370.375 2.98507L369.125 4.47761L368.5 5.67164V8.35821L369.75 10.1493L374.125 12.8358L381.625 16.4179L386 19.403L388.812 22.3881L390.375 25.3731L391 28.3582L390.688 30.7463L389.125 33.7313L385.688 37.3134L382.25 39.1045L379.438 39.7015L375.688 40H372.25L369.438 39.403L367.562 38.209L364.125 34.6269L361.625 30.4478L361 28.9552L361.312 27.7612L363.5 30.7463L366 34.0299L368.5 37.0149L370.688 37.9104L373.5 38.209H377.25L380.062 37.6119L382.562 35.8209L383.5 33.4328V30.7463L382.25 28.9552L380.375 27.4627L370.375 22.6866L367.562 20.597L363.812 17.0149L361.938 14.3284L361.625 13.4328V10.4478L362.25 7.76119L364.125 4.47761L365.688 2.98507L368.5 0.895522L371.312 0Z" fill="#AC934A"/>
<path d="M209.825 1H217.247L220.959 1.8797L224.052 3.93233L226.835 7.74436L227.454 9.21053L227.144 10.0902L225.598 8.62406L222.196 4.5188L219.103 2.7594L215.082 2.17293H211.99L209.206 3.05263L207.041 5.3985L206.732 6.2782V8.62406L207.969 10.3835L210.134 12.1429L215.392 14.782L219.722 16.8346L223.124 19.1805L225.289 20.9398L227.763 24.1654L228.691 26.218L229 29.4436L228.072 32.3759L226.216 35.015L223.742 37.3609L220.649 39.1203L217.247 40H210.753L207.969 39.1203L205.495 37.6541L202.093 34.4286L199.619 30.9098L199 29.4436V27.6842L199.928 28.5639L201.784 31.4962L204.876 35.015L208.278 37.3609L210.753 38.2406L212.608 38.5338H215.701L218.485 37.6541L220.031 36.4812L221.577 33.8421L221.887 31.203L220.031 28.8571L216.938 26.8045L210.753 24.1654L206.423 21.5263L202.711 18.3008L201.165 16.5414L200.237 13.9023V10.3835L201.165 6.86466L203.021 4.22556L205.186 2.46617L207.969 1.29323L209.825 1Z" fill="#AC934A"/>
<path d="M44.1919 1H47.6364L51.0808 1.58915L53.5859 3.65116L56.7172 7.18605L61.101 12.7829L66.1111 19.5581L67.3636 21.3256L71.4343 25.155L71.1212 23.093L70.8081 1.58915L72.3737 1.29457V26.6279L73 35.4651V39L71.7475 38.4109L68.9293 36.0543L66.1111 32.814L63.6061 29.8682L60.1616 25.7442L57.0303 21.9147L52.6465 16.3178L48.5758 11.0155L45.7576 7.77519L44.1919 6.5969L42.3131 5.71318L42 4.82946V2.76744L42.6263 1.29457L44.1919 1Z" fill="#AC934B"/>
<path d="M78 1H87.375L88 1.58915V30.1628L87.6875 39H79.5625L78.625 38.1163L78.3125 35.1705L78 1Z" fill="#AB9249"/>
<path d="M300.308 1H307.385L308.923 1.29231V24.0923L308.615 37.5385L321.231 37.8308L324 38.4154L323.385 39H300.615L300 37.2462V2.16923L300.308 1Z" fill="#AB9249"/>
<path d="M22.1524 1L23.0667 1.8797L29.7714 18.3008L33.4286 27.391L35.5619 32.0827L37.3905 36.4812L38 38.8271L37.6952 39.1203H31.2952L28.8571 38.2406L27.0286 35.3083L24.5905 29.4436L18.4952 29.1504H12.0952L10.8762 31.4962L9.04762 35.8947L6.91429 39.4135L6 40L6.91429 37.0677L10.8762 28.2707L14.5333 18.8872L16.9714 13.609L19.7143 7.1579L21.2381 2.46617L22.1524 1ZM18.1905 13.9023L15.1429 20.0602L12.4 27.9774V28.2707L22.1524 28.5639L24.2857 28.8571L23.6762 26.218L21.5429 20.3534L19.4095 15.6617L18.4952 13.9023H18.1905Z" fill="#AC934A"/>
<path d="M95.3333 1L104 1.29231V32.8615L103.667 38.7077L103 39H95.3333L94.3333 38.4154L94 33.4462V3.04615L94.3333 1.29231L95.3333 1Z" fill="#AC934A"/>
<path d="M295.773 0H297L296.693 1.18182L291.787 10.0455L289.333 14.7727L286.267 21.2727L285.653 23.3409L285.347 26.8864V38.1136L284.733 38.7045L283.507 39H280.44L277.067 38.7045L276.76 38.1136V26.8864L275.84 22.75L274.307 19.5L274 17.4318L274.613 16.5455L276.76 15.3636L278.907 13.8864L280.747 13.5909L283.507 18.3182L284.733 19.5L286.267 17.1364L292.4 5.31818L295.467 0.295455L295.773 0Z" fill="#AD944B"/>
<path d="M143.73 14L145.595 14.2941L146.527 14.5882L148.703 14.2941L152.122 14.8824L153.676 16.0588L154.919 18.1176L158.649 27.2353L162.689 36.9412L163 38.7059L161.446 39H156.473L153.986 38.4118L151.811 34.2941L149.946 29.8824L149.324 29.2941L141.554 29L140 28.4118L140.622 27.8235L147.459 27.5294L149.014 28.1176L146.216 20.4706L143.73 15.4706V14Z" fill="#AC934B"/>
<path d="M242.862 12H245.034L246.586 12.871L250 13.7419V38.7097L249.69 39H241.931L241.31 38.7097L241 37.8387V13.7419L242.552 12.2903L242.862 12Z" fill="#AB9249"/>
<path d="M78 1H87.375L88 1.58947V29H87.6875L87.375 16.6211L85.1875 16.3263H82.0625L80.5 16.0316L79.25 16.6211L78.625 20.7474H78.3125L78 6.01053V1Z" fill="#D6BC72"/>
<path d="M300.31 1H307.448L309 1.29114V24H308.69L308.379 16.4304L306.517 16.7215L303.103 16.4304L300.931 17.0127L300 17.3038V2.16456L300.31 1Z" fill="#D6BC71"/>
<path d="M44.1875 1H47.625L51.0625 1.57143L53.5625 3.57143L56.6875 7L61.0625 12.4286L62 13.5714L61.6875 14.1429L57.9375 13.8571L57.3125 13.2857H55.75L55.4375 13.5714L52.9375 13.2857L52.3125 15L50.75 13.5714L47.625 9.57143L45.125 7L42.3125 5.57143L42 4.71429V2.71429L42.625 1.28571L44.1875 1Z" fill="#D6BC71"/>
<path d="M264.615 1H272.308L274.154 3.03226L278.154 9.70968L280 13.1935V13.7742L276.923 15.2258L275.077 16.6774H274.154L273.846 19L272.923 17.8387L268.923 10.5806L266.154 6.22581L264 3.03226L264.308 2.45161L265.846 2.74194L266.154 1.58065L264.615 1.29032V1Z" fill="#D6BC70"/>
<path d="M330 1L358.065 1.29412L359 2.17647L358.376 2.76471H339.667L339.355 36H339.043L338.731 12.4706H334.677L333.742 12.7647H330V1Z" fill="#D6BC70"/>
<path d="M95.3333 1L104 1.28947V16.0526L103.333 14.8947H96.6667L94.6667 14.6053L94.3333 23H94V3.02632L94.3333 1.28947L95.3333 1Z" fill="#D6BC71"/>
<path d="M296.872 47H360.817L363 47.3333V48L361.752 48.3333L362.376 49H332.119L306.229 48.6667L295 48V47.3333L296.872 47ZM359.881 48L360.505 48.6667L360.817 48H359.881Z" fill="#DBD7CE"/>
<path d="M146.073 1L147.659 2.42857L153.366 15L154 17L151.78 15.2857L147.976 14.7143L145.439 15L144.171 14.7143V14.1429H143.22L142.902 15L142.585 13.5714H141L141.951 11L143.537 7.85714L145.439 1.57143L146.073 1Z" fill="#D6BC71"/>
<path d="M370.772 0H378.652L382.75 1.18519L385.587 3.25926L387.478 5.33333L389.685 10.0741L390 11.5556L388.739 10.963L384.957 5.03704L382.12 2.66667L378.652 1.48148L374.239 1.18519L371.717 1.77778L369.826 2.96296L368.565 4.44444L367.935 5.62963L367.62 8L365.413 8.2963L364.783 9.48148L363.207 10.3704L362.261 11.8519H361.63L361.946 13.9259L362.891 15.4074L362.576 16L361 13.3333V10.3704L361.63 7.7037L363.522 4.44444L365.098 2.96296L367.935 0.888889L370.772 0Z" fill="#B39B57"/>
<path d="M22.2424 1L23.1515 1.86667L26.4848 9.95556L28 13.4222L27.697 14L27.0909 12.8444L23.1515 12.5556L22.5455 12.8444H20.4242L19.2121 11.6889V11.1111L18 11.9778L18.303 10.5333L20.1212 5.91111L21.3333 2.44444L22.2424 1Z" fill="#D7BD71"/>
<path d="M209.864 1H217.5L221.318 1.87931L224.5 3.93103L227.364 7.74138L228 9.2069L227.682 10.0862L226.091 8.62069L222.591 4.51724L219.409 2.75862L215.273 2.17241H212.091L209.227 3.05172L208.273 3.63793V2.75862L206.045 3.05172L205.727 3.63793L204.455 5.10345H203.5L202.545 7.15517V8.03448L202.227 8.62069V10.0862V11.2586H201.591V12.7241H203.182L203.5 14.1897L202.227 14.7759L203.182 15.069L201.909 15.9483L202.227 16.8276L202.545 18L200.955 16.5345L200 13.8966V10.3793L200.955 6.86207L202.864 4.22414L205.091 2.46552L207.955 1.2931L209.864 1Z" fill="#D6BF7A"/>
<path d="M16.963 13H17.5556V13.5806H18.4444L18.1481 14.7419L16.6667 17.0645L14.2963 22.5806L12.5185 28.0968L21.7037 28.3871L22 29.2581H11.9259L10.7407 31.5806L8.96296 35.9355L6.88889 39.4194L6 40L6.88889 37.0968L10.7407 28.3871L14.2963 19.0968L16.6667 13.871L16.963 13Z" fill="#B69F5A"/>
<path d="M296.869 47H331.754V47.3333L313.066 47.6667L325.525 48H332.689L333 48.6667L332.066 49L306.213 48.6667L295 48V47.3333L296.869 47Z" fill="#DBD7CE"/>
<path d="M142.032 14L143 14.2917L142.677 15.4583L140.419 20.125L137.516 28.875L139.452 28.2917H142.032L140.742 28.875L140.419 29.4583L136.871 29.75L136.226 31.5L133.968 35L133.645 34.4167H133L133.968 31.7917L135.903 27.7083L138.806 19.8333L141.387 14.5833L142.032 14Z" fill="#B29B56"/>
<path d="M367.682 1L368 1.6L367.045 2.5H366.409V3.7L367.045 4.3L367.682 5.5V7.9L365.455 8.2L364.818 9.4L363.227 10.3L362.273 11.8H361.636L361.955 13.9L362.909 15.4L362.591 16L361 13.3V10.3L361.636 7.6L363.545 4.3L365.136 2.8L367.682 1Z" fill="#D6BC72"/>
<path d="M70.4 1H72V25H70.8L70.4 22.9259L70 1.2963L70.4 1Z" fill="#B19850"/>
<path d="M361 28L362.545 29.4634L364.709 32.6829L368.109 36.7805L369.655 37.6585L373.364 38.2439L377.382 38.5366L378 38.8293V39.4146L375.527 40H372.127L369.345 39.4146L367.491 38.2439L364.091 34.7317L361.618 30.6341L361 29.1707V28Z" fill="#8B7A44"/>
<path d="M331.685 47H344.856L347 47.2L346.081 47.6L345.468 48L344.243 47.8H322.189L313.306 47.6L313 47.2L331.685 47Z" fill="#D6BF7C"/>
<path d="M199 27L199.951 27.878L201.854 30.8049L205.024 34.3171L208.512 36.6585L211.366 37.8293L212 39H209.463L205.976 37.2439L202.171 33.7317L199.634 30.2195L199 28.7561V27Z" fill="#8A7945"/>
<path d="M342.618 1H358.073L359 1.6L358.382 2H353.436L342.618 1.8L342 1.4L342.618 1Z" fill="#AF9753"/>
<path d="M202.545 5H203.273L202.909 6.81395V7.72093L202.545 8.32558V9.83721V11.0465H201.818V12.5581H203.636L204 14.0698L202.545 14.6744L203.636 14.9767L202.182 15.8837L202.545 16.7907L202.909 18L201.091 16.4884L200 13.7674V10.1395L201.091 6.51163L201.818 5.30233L202.545 5Z" fill="#D6BC73"/>
<path d="M43.25 19L43.75 19.303L44 39H43.25L43 38.3939V22.3333L43.25 19Z" fill="#AC944E"/>
<path d="M340 19H352.705L353 19.6667L352.705 20.6667L349.455 21H340.295L340.591 20.3333H345.023L345.909 20L340.295 19.6667L340 19Z" fill="#D7C58F"/>
<path d="M219 1H221.483L224.586 3.25L227.379 7.42857L228 9.03571L227.69 10L226.138 8.39286L222.724 3.89286L219.31 1.64286L219 1Z" fill="#B39C58"/>
<path d="M391.105 47H393L392.684 48.4286L389.842 49H369V48.7143L377.842 48.4286L388.895 48.1429L391.105 47.5714V47Z" fill="#D9CDAC"/>
<path d="M229.975 1H238.1L242 1.2L241.675 2L229.65 1.8L229 1.6V1.2L229.975 1Z" fill="#B5A063"/>
<path d="M42.8 6H43.6L44 6.59459V10.1622L43.2 17H42.8L42 14.3243V10.7568L42.4 6.2973L42.8 6Z" fill="#AE954C"/>
<path d="M99.1429 55H102L101.429 56.1429L101.143 56.4286L97.4286 57H96V55.8571L97.1429 55.2857L99.1429 55Z" fill="#A18C4C"/>
<path d="M260 1H264.364L266 1.57143L265.455 2.71429L264.364 3L262.727 2.42857L260.273 1.85714L260 1Z" fill="#AC944C"/>
<path d="M12.2941 27L12.5882 27.8571L21.7059 28.1429L22 29H18.1765L12 28.7143V27.2857L12.2941 27Z" fill="#D8C17E"/>
<path d="M254.636 1H259.727L260.045 1.5L261 2H255.591L254 1.75V1.25L254.636 1Z" fill="#C8AE63"/>
<path d="M375.158 38H377.368L378 38.4V39.2L375.474 40H372L372.632 38.4L375.158 38Z" fill="#8E7D48"/>
<path d="M347 38H355L354.143 38.6667L351.286 39L347 38.6667V38Z" fill="#807141"/>
<path d="M323 38H327.565L329.696 38.3333L330 39H323V38Z" fill="#B39950"/>
<path d="M342 19H352.703L353 19.8L352.703 21H351.514V19.8L342 19.4V19Z" fill="#AF964F"/>
<path d="M43.25 33H43.5L43.75 35.7L44 36V39H43.25L43 38.4L43.25 33Z" fill="#8E7D46"/>
<path d="M355.211 38H359V39H353L354.263 38.3333L355.211 38Z" fill="#AB9249"/>
<path d="M370.625 38H373.125L375 38.2L373.75 38.6L372.188 38.8L371.875 39H370L370.625 38Z" fill="#AD944A"/>
<path d="M361 28L362.25 29.5385L363 31.3846H362.25L362 32L361 29.2308V28Z" fill="#B19951"/>
<path d="M132.143 34H133L132.714 35.5L131.286 37L131 36.1L132.143 34Z" fill="#917F47"/>
<path d="M42 11H42.3333L42.6667 13.2857H43V17H42.6667L42 14.4286V11Z" fill="#D2BC7C"/>
<path d="M99.2727 55H102L101.455 56.6L101.182 57H99L99.5455 56.2L100.909 56.6V55.4H99.2727V55Z" fill="#B59D56"/>
<path d="M42.5 6H43.5L44 6.57143V10H43.5L42.5 7.42857L42 6.28571L42.5 6Z" fill="#D8C07E"/>
<path d="M391 47H393L392.667 48.6667L391.333 49L391 47Z" fill="#D0BA7B"/>
<path d="M0.9 47L1.2 47.5L3 47.8333V48H0L0.3 47.1667L0.9 47Z" fill="#DAD5C7"/>
<path d="M94.6667 56L95.3333 56.2857V56.8571L96 57.4286L94 58L94.3333 56.8571L93 56.5714L94.6667 56Z" fill="#D6C07E"/>
</svg>
