<svg width="108" height="127" viewBox="0 0 108 127" fill="none" xmlns="http://www.w3.org/2000/svg">
<path d="M48.568 18.5208L49.0793 18.7993L50.1018 20.0526L51.5077 22.5592L52.5302 24.3695L53.4248 26.5976L54.0639 28.6864L54.5751 31.3322L54.7029 32.5855L54.5751 42.1941V43.3081L55.342 42.7511H56.2367L56.6201 43.0296V43.3081L55.2142 43.5866H54.7029L54.4473 44.1436L54.5751 46.0932L54.9586 47.7642L55.4698 48.8783L56.6201 50.5493L58.1538 53.0559L58.7929 54.4485V55.284L58.4095 55.7018L55.342 56.6765L54.9586 57.0943L55.0864 57.9298L55.4698 59.0439L55.7254 60.4364L55.5976 61.2719L55.0864 61.8289L53.8083 62.386L53.6805 62.8037L54.4473 64.1963L54.3195 65.1711L53.0414 66.4243L52.7858 67.3991L53.5527 70.1842L53.6805 70.8805V73.2478L53.297 74.5011L52.658 75.3366L51.5077 75.8936H49.7183L46.6509 75.1974L43.5834 74.2226L40.516 72.9693L38.0876 72.273H35.787L34.5089 72.9693L33.8698 73.6656L33.4864 74.2226L33.2308 75.0581V77.1469L33.8698 79.2357L35.1479 82.1601L36.6816 84.6667L37.5763 85.92L39.8769 88.705L41.2828 90.0976L43.3278 91.7686L45.6284 93.4397L47.929 94.8322L51.5077 96.5033L54.3195 97.4781L57.2592 98.0351L58.5373 98.1743H62.3716L65.439 97.7566L70.0402 96.5033L74.6414 94.8322L76.1751 94.136L76.5586 94.2752L75.6639 95.25L73.4911 96.6425L71.4461 97.7566L68.5065 99.0099L66.0781 99.8454L63.6497 100.402L59.6876 100.959H54.1917L51.2521 100.542L48.1846 99.8454L45.245 98.8706L42.1775 97.6173L39.3657 96.0855L36.6816 94.136L35.2757 92.8827L33.742 91.3509L32.5917 90.0976L31.4414 88.148L30.4189 86.0592L29.6521 83.8311L29.013 80.6283L28.8852 79.2357V77.4254L29.1408 74.6403L29.6521 72.1338L30.5467 69.2094L31.8248 66.0066L33.2308 62.943L34.3811 60.7149L35.787 58.2083L36.5538 56.6765L38.3432 53.4737L40.0047 50.5493L42.0497 46.9287L43.2 44.9792L44.3503 42.7511L46.0118 39.5482L47.6734 35.6491L48.6958 32.864L49.4627 29.9397L49.8461 27.4331V25.205L49.7183 23.3947L48.9515 19.6349L48.568 18.7993V18.5208Z" fill="#D6BC70"/>
<path d="M53.8083 12.6721L54.4473 12.8114L54.9586 13.7862L55.8533 16.989L57.6426 22.1414L59.5598 27.2939L62.4994 34.6743L64.9278 40.9408L66.4615 44.9792L71.3183 57.5121L72.9799 61.8289L75.1527 67.3991L76.8142 71.716L78.6036 76.3114L80.2651 80.6283L82.3101 85.92L84.6107 91.9079L86.5278 96.7818L88.0615 100.82L89.9787 105.833L92.1515 111.543L93.6852 115.163L95.0911 118.088L96.1136 119.62L97.2639 121.012L98.542 122.126L100.97 123.797L102.632 124.633L104.293 125.19L107.233 125.607L107.872 126.025L108 126.582L107.744 126.861L107.105 127H103.143L85.3775 126.861H78.4757L78.2201 126.582L78.3479 125.886L78.6036 125.607L81.2876 125.19L83.3326 124.076L84.7385 122.683L85.5053 121.43L85.761 120.177V117.809L85.1219 115.163L83.4604 110.429L81.032 103.745L79.626 99.7061L78.2201 95.807L77.5811 93.9967L76.4308 90.6546L72.213 79.0965L70.2959 73.8048L67.9953 67.3991L65.4391 60.2971L63.5219 55.0055L61.6047 49.5746L59.5598 44.1436L57.6426 38.7127L55.9811 33.6996L55.2142 30.636L54.3195 26.1798L53.6805 24.3695L52.2746 21.0274L51.3799 19.0779L51.2521 18.2423L52.2746 16.7105L52.9136 15.318L53.4249 13.2292L53.8083 12.6721Z" fill="#AB9249"/>
<path d="M38.3432 7.9375L38.9822 8.35526L40.8994 10.4441L42.1775 12.2544L43.7112 14.6217L44.8615 16.8498L45.7562 18.9386L46.2674 21.0274L46.3953 22.1414V26.0406L46.0118 28.9649L45.5006 31.3322L44.4781 34.2566L42.9444 37.8772L41.5385 40.6623L40.3882 42.7511L39.3657 44.7007L36.8095 48.8783L35.6592 50.6886L34.2532 52.9167L33.3586 54.3092L31.058 58.0691L29.7799 60.2971L28.5018 62.6645L26.968 65.7281L25.8177 68.3739L24.7953 71.716L24.284 74.5011L24.1562 75.6151V78.4002L24.4118 80.0713L25.1787 82.4386L26.2012 84.5274L27.3515 86.1985L28.7574 87.8695L30.2911 89.4013L30.9302 89.9583L31.4414 90.6546L31.3136 90.9331L29.2686 89.9583L26.968 88.4265L24.6674 86.7555L23.0059 85.3629L21.3444 83.6919L20.1941 82.1601L19.1716 80.7675L18.1491 78.9572L17.51 77.2862L17.1266 75.7544V72.9693L17.51 70.4627L18.4047 67.5384L19.4272 65.0318L21.3444 61.1327L23.1337 57.9298L24.4118 55.841L27.0958 51.3849L32.2083 43.0296L33.9976 39.8268L34.7645 38.5735L35.9148 36.3454L37.4485 33.1425L38.5988 30.3575L40.0047 25.7621L40.6438 22.5592L40.8994 19.9134V16.2928L40.516 13.9254L39.3657 10.1656L38.5988 8.77303L38.3432 8.35526V7.9375Z" fill="#F9DA90"/>
<path d="M24.4118 89.8191L25.1787 90.0976L26.5846 91.0724L28.2462 92.3257L30.0355 93.4397L32.8473 94.9715L33.2308 95.5285L32.7195 97.0603L30.5467 103.605L28.2462 110.15L26.4568 115.442L25.9456 117.391L25.8177 118.227V119.48L26.329 121.291L27.2237 122.822L28.2462 124.076L29.7799 125.05L32.3361 125.607L33.2308 126.025L33.4864 126.582L32.9751 127L22.6225 126.861H0.383432L0 126.304L0.127811 125.886L0.894674 125.607L4.34556 125.05L5.87929 124.493L7.92426 123.379L9.45799 122.265L10.8639 121.012L11.8864 119.898L13.1645 117.948L14.6982 114.746L15.9763 111.682L18.6604 104.441L20.9609 98.4528L23.2615 92.3257L23.9006 90.5153L24.4118 89.8191Z" fill="#AB9249"/>
<path d="M53.8083 12.6721L54.4473 12.8114L54.9586 13.7862L55.8533 16.989L57.6426 22.1414L59.5598 27.2939L62.4994 34.6743L64.9278 40.9408L66.4615 44.9792L71.3183 57.5121L72.9799 61.8289L75.1527 67.3991L76.4308 70.7412L76.303 71.0197H76.0473L76.303 71.4375V73.1086H76.5586L76.6864 74.5011L76.942 75.1974L76.8142 75.8936L76.1752 75.6151L75.6639 75.0581L75.2805 74.9189L75.0249 75.6151L74.258 76.1722L74.1302 76.3114H73.3633L72.9799 76.0329L72.3408 75.8936L72.213 76.1722L71.574 76.0329L71.4462 76.3114H71.1905L69.1456 70.602L66.845 64.1963L65.1834 59.6009L63.1385 53.8914L61.6047 49.5746L59.5598 44.1436L57.6426 38.7127L55.9811 33.6996L55.2142 30.636L54.3195 26.1798L53.6805 24.3695L52.2746 21.0274L51.3799 19.0779L51.2521 18.2423L52.2746 16.7105L52.9136 15.318L53.4249 13.2292L53.8083 12.6721Z" fill="#F9DA90"/>
<path d="M24.7953 0H25.8178L26.5846 0.557018L26.9681 1.67105V3.48136L27.2237 4.5954L28.5018 5.98794V6.26645L29.013 6.54496L30.1633 7.79825L31.1858 8.77303L33.103 10.7226L34.1255 11.6974L35.4036 12.9507L35.6592 13.6469L34.2533 16.989L32.3361 21.7237L30.0355 27.2939L28.1184 32.307L26.5846 36.0669L25.3065 39.5482L24.9231 39.8268H12.6533L12.142 41.3586L11.503 42.0548H10.3527L9.07457 41.3586L8.69113 40.8015L8.56332 40.2445V38.852L9.20238 37.7379L9.84143 37.3202L10.8639 37.4594L12.5255 38.295H13.4201L14.9539 37.7379L18.1491 35.7884L20.7053 34.2566L22.1113 33.1425L22.8781 32.1678L23.0059 31.8893V30.7752L22.2391 28.4079L21.4722 26.8761L20.4497 25.3443L18.6604 23.2555L17.3823 22.0022L15.7207 20.7489L14.6982 20.6096L13.5479 21.1667L12.142 20.8882L11.503 20.4704L10.9917 19.7741L10.8639 18.7993L11.2473 17.5461L12.2698 16.432L12.5255 16.2928H13.2923L14.0592 16.8498L14.9539 17.8246L15.5929 18.9386L17.2544 19.4956L18.4047 19.6349H21.8556L25.0509 19.0779L26.7124 18.5208L28.1184 17.6853L28.6296 16.989L28.7574 16.7105V14.761L27.9905 11.2796L26.7124 7.10197L25.9456 5.43092L25.3065 4.8739L23.7728 4.03838L22.8781 2.92434L23.0059 1.94956L24.1562 0.557018L24.7953 0Z" fill="#D6BC70"/>
<path d="M29.3964 74.2226H29.7799L30.1633 75.6151V76.0329L30.9302 75.7544H32.8473L33.1029 76.7292L33.8698 79.2357L35.1479 82.1601L36.6816 84.6667L37.5763 85.92L39.8769 88.705L41.2828 90.0976L43.3278 91.7686L45.6284 93.4397L47.929 94.8322L51.5077 96.5033L54.3195 97.4781L57.2592 98.0351L58.5373 98.1743H62.3716L65.439 97.7566L70.0402 96.5033L74.6414 94.8322L76.1751 94.136L76.5586 94.2752L75.6639 95.25L73.4911 96.6425L71.4461 97.7566L68.5065 99.0099L66.0781 99.8454L63.6497 100.402L59.6876 100.959H54.1917L51.2521 100.542L48.1846 99.8454L45.245 98.8706L42.1775 97.6173L39.3657 96.0855L36.6816 94.136L35.2757 92.8827L33.742 91.3509L32.5917 90.0976L31.4414 88.148L30.4189 86.0592L29.6521 83.8311L29.013 80.6283L28.8852 79.2357V77.4254L29.1408 74.6404L29.3964 74.2226Z" fill="#AB934A"/>
<path d="M48.568 18.5208L49.0793 18.7993L50.1018 20.0526L51.5077 22.5592L52.5302 24.3695L53.4248 26.5976L54.0639 28.6864L54.5751 31.3322L54.703 32.5855L54.5751 42.1941V43.3081L55.342 42.7511H56.2367L56.6201 43.0296V43.3081L55.2142 43.5866H54.703L54.4473 44.1436L54.5751 46.0932L54.9586 47.7642L55.4698 48.8783L55.9811 49.7138L55.4698 49.4353V49.1568L54.5751 49.0175L53.9361 48.5998L53.6805 48.3213L52.4024 49.0175L51.8911 48.739L51.6355 49.4353L50.7408 49.8531L50.1018 49.9923L49.8461 50.5493L48.6959 51.1064L48.3124 51.5241L47.1621 51.9419L46.5231 52.0811L46.1396 52.4989L44.8615 53.0559L44.4781 53.6129L43.5834 53.7522V54.0307L42.8166 54.3092H42.1775L41.9219 54.0307L41.5385 54.3092H40.6438L40.3882 53.8914V52.9167L40.8994 52.7774L41.0272 52.0811L41.2828 51.6634V51.3849L41.7941 51.1064V50.5493L40.8994 50.4101L40.1325 50.5493L40.7716 49.1568L42.5609 46.0932L43.839 43.7259L44.9893 41.4978L46.0118 39.5482L47.6734 35.6491L48.6959 32.864L49.4627 29.9397L49.8461 27.4331V25.205L49.7183 23.3947L48.9515 19.6349L48.568 18.7993V18.5208Z" fill="#F9DA90"/>
<path d="M33.1029 52.9167H33.6142L33.742 53.3344L33.2308 54.17L32.9751 54.4485L32.4639 55.841L31.4414 57.3728L30.1633 59.6009L28.5018 62.6645L26.968 65.7281L25.8177 68.3739L24.7953 71.716L24.284 74.5011L24.1562 75.6151V78.4002L24.4118 80.0713L25.1787 82.4386L26.2012 84.5274L27.3515 86.1985L28.7574 87.8695L30.2911 89.4013L30.9302 89.9583L31.4414 90.6546L31.3136 90.9331L29.2686 89.9583L26.968 88.4265L24.6674 86.7555L23.0059 85.3629L21.3444 83.6919L20.1941 82.1601L19.1716 80.7675L18.1491 78.9572L17.51 77.2862L17.1266 75.7544V72.9693L17.51 70.4627L18.4047 67.5384L19.4272 65.0318L21.3444 61.1327L22.4947 59.1831L23.0059 58.9046H24.1562L24.4118 58.3476L25.8177 57.6513L26.7124 57.0943L27.7349 56.2588L29.5243 55.284L30.5467 54.5877L31.1858 54.0307L32.0805 53.6129L33.1029 52.9167Z" fill="#D6BC70"/>
<path d="M61.9882 48.4605L62.6272 49.1568L62.755 48.739L63.5219 48.8783V49.1568L64.6722 49.2961L65.3112 49.1568L66.4615 50.6886V50.9671L66.9728 50.8279L67.2284 50.4101H67.484L67.2284 48.8783L67.7397 49.0175L68.2509 49.5746L70.5515 55.5625L72.9799 61.8289L75.1527 67.3991L76.4308 70.7412L76.303 71.0197H76.0473L76.303 71.4375V73.1086H76.5586L76.6864 74.5011L76.942 75.1974L76.8142 75.8936L76.1752 75.6151L75.6639 75.0581L75.2805 74.9189L75.0249 75.6151L74.258 76.1721L74.1302 76.3114H73.3633L72.9799 76.0329L72.3408 75.8936L72.213 76.1721L71.574 76.0329L71.4462 76.3114H71.1905L69.1456 70.602L66.845 64.1963L65.1834 59.6009L63.1385 53.8914L61.6047 49.5746L61.4769 48.8783L61.9882 48.4605Z" fill="#D6BC70"/>
<path d="M37.0651 15.4572L37.7041 15.5965L38.471 16.0143L39.1101 16.8498L39.3657 17.4068V19.0779L38.7266 21.7237L36.6816 27.7116L35.2757 31.6108L33.8698 35.0921L32.8473 37.3202L31.697 39.2697L30.9302 39.8268L30.0355 39.966L27.8627 39.8268L27.3515 39.5483L27.4793 38.9912L29.013 35.5099L31.3136 29.8004L32.7195 26.1798L34.2532 22.42L36.2982 17.2676L36.9373 15.5965L37.0651 15.4572Z" fill="#D6BC70"/>
<path d="M22.2391 33.2818L22.6225 33.5603L22.8781 34.2566L24.0284 34.8136L25.3065 35.0921V35.3706L26.2012 35.6491L26.4568 36.0669L26.329 36.7632L25.3065 39.5482L24.9231 39.8268H12.6533L12.142 41.3586L11.503 42.0548H10.3527L9.07457 41.3586L8.69113 40.8015L8.56332 40.2445V38.852L9.20238 37.7379L9.84143 37.3202L10.8639 37.4594L12.5255 38.295H13.4201L14.9539 37.7379L18.1491 35.7884L20.7053 34.2566L21.8556 33.4211L22.2391 33.2818Z" fill="#AC934A"/>
<path d="M23.645 77.9825L23.7728 78.261L24.1562 78.4002L24.4118 80.0713L25.1787 82.4386L26.2012 84.5274L27.3515 86.1985L28.7574 87.8695L30.2911 89.4013L30.9302 89.9583L31.4414 90.6546L31.3136 90.9331L29.2686 89.9583L26.968 88.4265L24.6675 86.7555L23.0059 85.3629L21.3444 83.6919L20.1941 82.1601L19.4272 81.1853L19.1716 80.2105L20.1941 79.7928H21.0888L21.3444 79.932L21.6 79.375L22.3669 79.2357L23.0059 79.6535L23.5172 79.7928V78.261L23.645 77.9825Z" fill="#AD944C"/>
<path d="M9.84143 37.3202L10.8639 37.4594L12.5255 38.295H13.4201L13.9314 38.1557H14.9539L15.4651 39.5482L12.6533 39.8268L12.142 41.3586L11.503 42.0548H10.3527L9.07457 41.3586L8.69113 40.8015L8.56332 40.2445V38.852L9.20238 37.7379L9.84143 37.3202Z" fill="#837442"/>
<path d="M52.5302 72.83L53.1692 72.9693V73.3871H53.4248V74.2226L52.658 75.3366L51.5077 75.8936H49.7183L47.1621 75.3366L47.0343 74.9189L46.7787 74.7796L47.2899 74.2226L48.4402 73.9441L49.0793 73.5263L50.4852 73.3871L50.8686 72.9693H52.1467L52.5302 72.83Z" fill="#AD944C"/>
<path d="M12.5254 16.2928H13.2923L13.9313 16.7105V17.1283H13.5479V17.9638L13.2923 18.3816L12.6532 18.2423H12.2698L11.7586 19.2171L12.0142 19.3564H12.7811L12.9089 20.0526H12.3976L11.6308 20.3311L10.9917 19.7741L10.8639 18.7993L11.2473 17.546L12.2698 16.432L12.5254 16.2928Z" fill="#AD934A"/>
<path d="M29.013 38.852H29.9077L30.9302 39.409V39.8268L30.0355 39.966L27.8627 39.8268L27.3515 39.5482L27.4793 38.9912H27.8627L27.9905 39.2697L29.013 38.852Z" fill="#AF9750"/>
<path d="M55.342 42.7511H56.2367L56.6201 43.0296V43.3081L55.2142 43.5866L54.7029 43.4474L55.342 42.7511Z" fill="#F8DA92"/>
<path d="M12.5254 16.2928H13.2923L13.1645 16.989H12.3976L12.142 16.5713L12.5254 16.2928Z" fill="#D4BA6E"/>
<path d="M38.3432 7.9375L38.9823 8.35526L39.3657 8.91228L39.1101 9.19079L38.7266 9.05154L38.3432 8.35526V7.9375Z" fill="#DBC177"/>
<path d="M23.9006 0.835526L24.0284 1.25329L23.645 2.22807H23.3893L23.2615 1.5318L23.9006 0.835526Z" fill="#FADB90"/>
</svg>
